<svg width="35" height="34" viewBox="0 0 35 34" fill="none" xmlns="http://www.w3.org/2000/svg">
<path d="M29.25 5.18334C27.7218 3.64019 25.9017 2.41662 23.8958 1.58395C21.89 0.751273 19.7385 0.326147 17.5667 0.333342C8.46666 0.333342 1.04999 7.75001 1.04999 16.85C1.04999 19.7667 1.81666 22.6 3.24999 25.1L0.916656 33.6667L9.66666 31.3667C12.0833 32.6833 14.8 33.3833 17.5667 33.3833C26.6667 33.3833 34.0833 25.9667 34.0833 16.8667C34.0833 12.45 32.3667 8.30001 29.25 5.18334ZM17.5667 30.5833C15.1 30.5833 12.6833 29.9167 10.5667 28.6667L10.0667 28.3667L4.86666 29.7333L6.24999 24.6667L5.91666 24.15C4.5459 21.9618 3.8182 19.4321 3.81666 16.85C3.81666 9.28334 9.98332 3.11668 17.55 3.11668C21.2167 3.11668 24.6667 4.55001 27.25 7.15001C28.5294 8.42311 29.5432 9.93758 30.2327 11.6056C30.9222 13.2735 31.2737 15.0618 31.2667 16.8667C31.3 24.4333 25.1333 30.5833 17.5667 30.5833ZM25.1 20.3167C24.6833 20.1167 22.65 19.1167 22.2833 18.9667C21.9 18.8333 21.6333 18.7667 21.35 19.1667C21.0667 19.5833 20.2833 20.5167 20.05 20.7833C19.8167 21.0667 19.5667 21.1 19.15 20.8833C18.7333 20.6833 17.4 20.2333 15.8333 18.8333C14.6 17.7333 13.7833 16.3833 13.5333 15.9667C13.3 15.55 13.5 15.3333 13.7167 15.1167C13.9 14.9333 14.1333 14.6333 14.3333 14.4C14.5333 14.1667 14.6167 13.9833 14.75 13.7167C14.8833 13.4333 14.8167 13.2 14.7167 13C14.6167 12.8 13.7833 10.7667 13.45 9.93334C13.1167 9.13334 12.7667 9.23334 12.5167 9.21668H11.7167C11.4333 9.21668 11 9.31668 10.6167 9.73334C10.25 10.15 9.18332 11.15 9.18332 13.1833C9.18332 15.2167 10.6667 17.1833 10.8667 17.45C11.0667 17.7333 13.7833 21.9 17.9167 23.6833C18.9 24.1167 19.6667 24.3667 20.2667 24.55C21.25 24.8667 22.15 24.8167 22.8667 24.7167C23.6667 24.6 25.3167 23.7167 25.65 22.75C26 21.7833 26 20.9667 25.8833 20.7833C25.7667 20.6 25.5167 20.5167 25.1 20.3167Z" fill="white"/>
</svg>
